<?xml version="1.0" encoding="utf-8" standalone="no"?>
<!DOCTYPE svg PUBLIC "-//W3C//DTD SVG 1.1//EN"
  "http://www.w3.org/Graphics/SVG/1.1/DTD/svg11.dtd">
<svg xmlns:xlink="http://www.w3.org/1999/xlink" width="386.064pt" height="270.068281pt" viewBox="0 0 386.064 270.068281" xmlns="http://www.w3.org/2000/svg" version="1.1">
 <metadata>
  <rdf:RDF xmlns:dc="http://purl.org/dc/elements/1.1/" xmlns:cc="http://creativecommons.org/ns#" xmlns:rdf="http://www.w3.org/1999/02/22-rdf-syntax-ns#">
   <cc:Work>
    <dc:type rdf:resource="http://purl.org/dc/dcmitype/StillImage"/>
    <dc:date>2026-09-28T15:10:07.040384</dc:date>
    <dc:format>image/svg+xml</dc:format>
    <dc:creator>
     <cc:Agent>
      <dc:title>Matplotlib v3.11.2, https://matplotlib.org/</dc:title>
     </cc:Agent>
    </dc:creator>
   </cc:Work>
  </rdf:RDF>
 </metadata>
 <defs>
  <style type="text/css">*{stroke-linejoin: round; stroke-linecap: butt}</style>
 </defs>
 <g id="figure_1">
  <g id="patch_1">
   <path d="M 0 270.068281 
L 386.064 270.068281 
L 386.064 0 
L 0 0 
z
" style="fill: #ffffff"/>
  </g>
  <g id="axes_1">
   <g id="patch_2">
    <path d="M 55.224 226.471438 
L 378.864 226.471438 
L 378.864 21.343437 
L 55.224 21.343437 
z
" style="fill: #ffffff"/>
   </g>
   <g id="matplotlib.axis_1">
    <g id="xtick_1">
     <g id="line2d_1">
      <path d="M 109.164 226.471438 
L 109.164 21.343437 
" clip-path="url(#pc3fd5c0dfd)" style="fill: none; stroke: #e1e0d9; stroke-width: 0.6; stroke-linecap: square"/>
     </g>
     <g id="line2d_2">
      <defs>
       <path id="m9ebf8e8d35" d="M 0 0 
L 0 3.5 
" style="stroke: #898781; stroke-width: 0.8"/>
      </defs>
      <g>
       <use xlink:href="#m9ebf8e8d35" x="109.164" y="226.471438" style="fill: #898781; stroke: #898781; stroke-width: 0.8"/>
      </g>
     </g>
     <g id="text_1">
      <text style="font-size: 10px; font-family: 'Segoe UI', 'DejaVu Sans', 'Arial', sans-serif; text-anchor: middle; fill: #52514e" x="109.164" y="240.874563" transform="rotate(-0 109.164 240.874563)">A · conventional</text>
     </g>
    </g>
    <g id="xtick_2">
     <g id="line2d_3">
      <path d="M 217.044 226.471438 
L 217.044 21.343437 
" clip-path="url(#pc3fd5c0dfd)" style="fill: none; stroke: #e1e0d9; stroke-width: 0.6; stroke-linecap: square"/>
     </g>
     <g id="line2d_4">
      <g>
       <use xlink:href="#m9ebf8e8d35" x="217.044" y="226.471438" style="fill: #898781; stroke: #898781; stroke-width: 0.8"/>
      </g>
     </g>
     <g id="text_2">
      <text style="font-size: 10px; font-family: 'Segoe UI', 'DejaVu Sans', 'Arial', sans-serif; text-anchor: middle; fill: #52514e" x="217.044" y="240.751711" transform="rotate(-0 217.044 240.751711)">B · provenance</text>
     </g>
    </g>
    <g id="xtick_3">
     <g id="line2d_5">
      <path d="M 324.924 226.471438 
L 324.924 21.343437 
" clip-path="url(#pc3fd5c0dfd)" style="fill: none; stroke: #e1e0d9; stroke-width: 0.6; stroke-linecap: square"/>
     </g>
     <g id="line2d_6">
      <g>
       <use xlink:href="#m9ebf8e8d35" x="324.924" y="226.471438" style="fill: #898781; stroke: #898781; stroke-width: 0.8"/>
      </g>
     </g>
     <g id="text_3">
      <text style="font-size: 10px; font-family: 'Segoe UI', 'DejaVu Sans', 'Arial', sans-serif; text-anchor: middle; fill: #52514e" x="324.924" y="240.980813" transform="rotate(-0 324.924 240.980813)">C · forensic-ready</text>
     </g>
    </g>
   </g>
   <g id="matplotlib.axis_2">
    <g id="ytick_1">
     <g id="line2d_7">
      <path d="M 55.224 213.417838 
L 378.864 213.417838 
" clip-path="url(#pc3fd5c0dfd)" style="fill: none; stroke: #e1e0d9; stroke-width: 0.6; stroke-linecap: square"/>
     </g>
     <g id="line2d_8">
      <defs>
       <path id="m55256f045a" d="M 0 0 
L -3.5 0 
" style="stroke: #898781; stroke-width: 0.8"/>
      </defs>
      <g>
       <use xlink:href="#m55256f045a" x="55.224" y="213.417838" style="fill: #898781; stroke: #898781; stroke-width: 0.8"/>
      </g>
     </g>
     <g id="text_4">
      <text style="font-size: 10px; font-family: 'Segoe UI', 'DejaVu Sans', 'Arial', sans-serif; text-anchor: end; fill: #52514e" x="48.224" y="217.057974" transform="rotate(-0 48.224 217.057974)">0.86</text>
     </g>
    </g>
    <g id="ytick_2">
     <g id="line2d_9">
      <path d="M 55.224 187.310637 
L 378.864 187.310637 
" clip-path="url(#pc3fd5c0dfd)" style="fill: none; stroke: #e1e0d9; stroke-width: 0.6; stroke-linecap: square"/>
     </g>
     <g id="line2d_10">
      <g>
       <use xlink:href="#m55256f045a" x="55.224" y="187.310637" style="fill: #898781; stroke: #898781; stroke-width: 0.8"/>
      </g>
     </g>
     <g id="text_5">
      <text style="font-size: 10px; font-family: 'Segoe UI', 'DejaVu Sans', 'Arial', sans-serif; text-anchor: end; fill: #52514e" x="48.224" y="190.950774" transform="rotate(-0 48.224 190.950774)">0.88</text>
     </g>
    </g>
    <g id="ytick_3">
     <g id="line2d_11">
      <path d="M 55.224 161.203438 
L 378.864 161.203438 
" clip-path="url(#pc3fd5c0dfd)" style="fill: none; stroke: #e1e0d9; stroke-width: 0.6; stroke-linecap: square"/>
     </g>
     <g id="line2d_12">
      <g>
       <use xlink:href="#m55256f045a" x="55.224" y="161.203438" style="fill: #898781; stroke: #898781; stroke-width: 0.8"/>
      </g>
     </g>
     <g id="text_6">
      <text style="font-size: 10px; font-family: 'Segoe UI', 'DejaVu Sans', 'Arial', sans-serif; text-anchor: end; fill: #52514e" x="48.224" y="164.843574" transform="rotate(-0 48.224 164.843574)">0.90</text>
     </g>
    </g>
    <g id="ytick_4">
     <g id="line2d_13">
      <path d="M 55.224 135.096238 
L 378.864 135.096238 
" clip-path="url(#pc3fd5c0dfd)" style="fill: none; stroke: #e1e0d9; stroke-width: 0.6; stroke-linecap: square"/>
     </g>
     <g id="line2d_14">
      <g>
       <use xlink:href="#m55256f045a" x="55.224" y="135.096238" style="fill: #898781; stroke: #898781; stroke-width: 0.8"/>
      </g>
     </g>
     <g id="text_7">
      <text style="font-size: 10px; font-family: 'Segoe UI', 'DejaVu Sans', 'Arial', sans-serif; text-anchor: end; fill: #52514e" x="48.224" y="138.736374" transform="rotate(-0 48.224 138.736374)">0.92</text>
     </g>
    </g>
    <g id="ytick_5">
     <g id="line2d_15">
      <path d="M 55.224 108.989037 
L 378.864 108.989037 
" clip-path="url(#pc3fd5c0dfd)" style="fill: none; stroke: #e1e0d9; stroke-width: 0.6; stroke-linecap: square"/>
     </g>
     <g id="line2d_16">
      <g>
       <use xlink:href="#m55256f045a" x="55.224" y="108.989037" style="fill: #898781; stroke: #898781; stroke-width: 0.8"/>
      </g>
     </g>
     <g id="text_8">
      <text style="font-size: 10px; font-family: 'Segoe UI', 'DejaVu Sans', 'Arial', sans-serif; text-anchor: end; fill: #52514e" x="48.224" y="112.629174" transform="rotate(-0 48.224 112.629174)">0.94</text>
     </g>
    </g>
    <g id="ytick_6">
     <g id="line2d_17">
      <path d="M 55.224 82.881838 
L 378.864 82.881838 
" clip-path="url(#pc3fd5c0dfd)" style="fill: none; stroke: #e1e0d9; stroke-width: 0.6; stroke-linecap: square"/>
     </g>
     <g id="line2d_18">
      <g>
       <use xlink:href="#m55256f045a" x="55.224" y="82.881838" style="fill: #898781; stroke: #898781; stroke-width: 0.8"/>
      </g>
     </g>
     <g id="text_9">
      <text style="font-size: 10px; font-family: 'Segoe UI', 'DejaVu Sans', 'Arial', sans-serif; text-anchor: end; fill: #52514e" x="48.224" y="86.521974" transform="rotate(-0 48.224 86.521974)">0.96</text>
     </g>
    </g>
    <g id="ytick_7">
     <g id="line2d_19">
      <path d="M 55.224 56.774637 
L 378.864 56.774637 
" clip-path="url(#pc3fd5c0dfd)" style="fill: none; stroke: #e1e0d9; stroke-width: 0.6; stroke-linecap: square"/>
     </g>
     <g id="line2d_20">
      <g>
       <use xlink:href="#m55256f045a" x="55.224" y="56.774637" style="fill: #898781; stroke: #898781; stroke-width: 0.8"/>
      </g>
     </g>
     <g id="text_10">
      <text style="font-size: 10px; font-family: 'Segoe UI', 'DejaVu Sans', 'Arial', sans-serif; text-anchor: end; fill: #52514e" x="48.224" y="60.414774" transform="rotate(-0 48.224 60.414774)">0.98</text>
     </g>
    </g>
    <g id="ytick_8">
     <g id="line2d_21">
      <path d="M 55.224 30.667438 
L 378.864 30.667438 
" clip-path="url(#pc3fd5c0dfd)" style="fill: none; stroke: #e1e0d9; stroke-width: 0.6; stroke-linecap: square"/>
     </g>
     <g id="line2d_22">
      <g>
       <use xlink:href="#m55256f045a" x="55.224" y="30.667438" style="fill: #898781; stroke: #898781; stroke-width: 0.8"/>
      </g>
     </g>
     <g id="text_11">
      <text style="font-size: 10px; font-family: 'Segoe UI', 'DejaVu Sans', 'Arial', sans-serif; text-anchor: end; fill: #52514e" x="48.224" y="34.307574" transform="rotate(-0 48.224 34.307574)">1.00</text>
     </g>
    </g>
    <g id="text_12">
     <text style="font-size: 10px; font-family: 'Segoe UI', 'DejaVu Sans', 'Arial', sans-serif; text-anchor: middle; fill: #52514e" x="23.53025" y="123.907438" transform="rotate(-90 23.53025 123.907438)">Event recovery rate</text>
    </g>
   </g>
   <g id="LineCollection_1">
    <path d="M 85.4304 205.492438 
L 132.8976 205.492438 
" clip-path="url(#pc3fd5c0dfd)" style="fill: none; stroke: #0b0b0b; stroke-width: 1.6"/>
   </g>
   <g id="LineCollection_2">
    <path d="M 193.3104 30.667438 
L 240.7776 30.667438 
" clip-path="url(#pc3fd5c0dfd)" style="fill: none; stroke: #0b0b0b; stroke-width: 1.6"/>
   </g>
   <g id="LineCollection_3">
    <path d="M 301.1904 30.667438 
L 348.6576 30.667438 
" clip-path="url(#pc3fd5c0dfd)" style="fill: none; stroke: #0b0b0b; stroke-width: 1.6"/>
   </g>
   <g id="patch_3">
    <path d="M 55.224 226.471438 
L 55.224 21.343437 
" style="fill: none; stroke: #c3c2b7; stroke-width: 0.8; stroke-linejoin: miter; stroke-linecap: square"/>
   </g>
   <g id="patch_4">
    <path d="M 55.224 226.471438 
L 378.864 226.471438 
" style="fill: none; stroke: #c3c2b7; stroke-width: 0.8; stroke-linejoin: miter; stroke-linecap: square"/>
   </g>
   <g id="PathCollection_1">
    <defs>
     <path id="m23a1669773" d="M 0 3.391165 
C 0.899347 3.391165 1.761981 3.03385 2.397916 2.397916 
C 3.03385 1.761981 3.391165 0.899347 3.391165 0 
C 3.391165 -0.899347 3.03385 -1.761981 2.397916 -2.397916 
C 1.761981 -3.03385 0.899347 -3.391165 0 -3.391165 
C -0.899347 -3.391165 -1.761981 -3.03385 -2.397916 -2.397916 
C -3.03385 -1.761981 -3.391165 -0.899347 -3.391165 0 
C -3.391165 0.899347 -3.03385 1.761981 -2.397916 2.397916 
C -1.761981 3.03385 -0.899347 3.391165 0 3.391165 
z
" style="stroke: #ffffff; stroke-width: 1.5"/>
    </defs>
    <g clip-path="url(#pc3fd5c0dfd)">
     <use xlink:href="#m23a1669773" x="109.164" y="193.837438" style="fill: #2a78d6; stroke: #ffffff; stroke-width: 1.5"/>
     <use xlink:href="#m23a1669773" x="109.164" y="193.837438" style="fill: #2a78d6; stroke: #ffffff; stroke-width: 1.5"/>
     <use xlink:href="#m23a1669773" x="109.164" y="217.147438" style="fill: #2a78d6; stroke: #ffffff; stroke-width: 1.5"/>
     <use xlink:href="#m23a1669773" x="109.164" y="217.147438" style="fill: #2a78d6; stroke: #ffffff; stroke-width: 1.5"/>
    </g>
   </g>
   <g id="PathCollection_2">
    <defs>
     <path id="mc3fc13184a" d="M 0 3.391165 
C 0.899347 3.391165 1.761981 3.03385 2.397916 2.397916 
C 3.03385 1.761981 3.391165 0.899347 3.391165 0 
C 3.391165 -0.899347 3.03385 -1.761981 2.397916 -2.397916 
C 1.761981 -3.03385 0.899347 -3.391165 0 -3.391165 
C -0.899347 -3.391165 -1.761981 -3.03385 -2.397916 -2.397916 
C -3.03385 -1.761981 -3.391165 -0.899347 -3.391165 0 
C -3.391165 0.899347 -3.03385 1.761981 -2.397916 2.397916 
C -1.761981 3.03385 -0.899347 3.391165 0 3.391165 
z
" style="stroke: #ffffff; stroke-width: 1.5"/>
    </defs>
    <g clip-path="url(#pc3fd5c0dfd)">
     <use xlink:href="#mc3fc13184a" x="217.044" y="30.667438" style="fill: #eb6834; stroke: #ffffff; stroke-width: 1.5"/>
     <use xlink:href="#mc3fc13184a" x="217.044" y="30.667438" style="fill: #eb6834; stroke: #ffffff; stroke-width: 1.5"/>
     <use xlink:href="#mc3fc13184a" x="217.044" y="30.667438" style="fill: #eb6834; stroke: #ffffff; stroke-width: 1.5"/>
     <use xlink:href="#mc3fc13184a" x="217.044" y="30.667438" style="fill: #eb6834; stroke: #ffffff; stroke-width: 1.5"/>
    </g>
   </g>
   <g id="PathCollection_3">
    <defs>
     <path id="m7187c7dcba" d="M 0 3.391165 
C 0.899347 3.391165 1.761981 3.03385 2.397916 2.397916 
C 3.03385 1.761981 3.391165 0.899347 3.391165 0 
C 3.391165 -0.899347 3.03385 -1.761981 2.397916 -2.397916 
C 1.761981 -3.03385 0.899347 -3.391165 0 -3.391165 
C -0.899347 -3.391165 -1.761981 -3.03385 -2.397916 -2.397916 
C -3.03385 -1.761981 -3.391165 -0.899347 -3.391165 0 
C -3.391165 0.899347 -3.03385 1.761981 -2.397916 2.397916 
C -1.761981 3.03385 -0.899347 3.391165 0 3.391165 
z
" style="stroke: #ffffff; stroke-width: 1.5"/>
    </defs>
    <g clip-path="url(#pc3fd5c0dfd)">
     <use xlink:href="#m7187c7dcba" x="324.924" y="30.667438" style="fill: #1baf7a; stroke: #ffffff; stroke-width: 1.5"/>
     <use xlink:href="#m7187c7dcba" x="324.924" y="30.667438" style="fill: #1baf7a; stroke: #ffffff; stroke-width: 1.5"/>
     <use xlink:href="#m7187c7dcba" x="324.924" y="30.667438" style="fill: #1baf7a; stroke: #ffffff; stroke-width: 1.5"/>
     <use xlink:href="#m7187c7dcba" x="324.924" y="30.667438" style="fill: #1baf7a; stroke: #ffffff; stroke-width: 1.5"/>
    </g>
   </g>
   <g id="text_13">
    <text style="font-size: 11px; font-family: 'Segoe UI', 'DejaVu Sans', 'Arial', sans-serif; text-anchor: start; fill: #0b0b0b" x="55.224" y="15.343437" transform="rotate(-0 55.224 15.343437)">Figure 4.5. Event recovery rate (attacked runs)</text>
   </g>
  </g>
  <g id="text_14">
   <text style="font-size: 7.5px; font-family: 'Segoe UI', 'DejaVu Sans', 'Arial', sans-serif; text-anchor: start; fill: #52514e" x="7.2" y="261.103438" transform="rotate(-0 7.2 261.103438)">Dots: individual runs (seeds 1-2); bar: mean. Pilot, 30 epochs, 5 % poisoning.</text>
  </g>
 </g>
 <defs>
  <clipPath id="pc3fd5c0dfd">
   <rect x="55.224" y="21.343437" width="323.64" height="205.128"/>
  </clipPath>
 </defs>
</svg>
