<?xml version="1.0" encoding="utf-8" standalone="no"?>
<!DOCTYPE svg PUBLIC "-//W3C//DTD SVG 1.1//EN"
  "http://www.w3.org/Graphics/SVG/1.1/DTD/svg11.dtd">
<svg xmlns:xlink="http://www.w3.org/1999/xlink" width="386.064pt" height="269.965156pt" viewBox="0 0 386.064 269.965156" xmlns="http://www.w3.org/2000/svg" version="1.1">
 <metadata>
  <rdf:RDF xmlns:dc="http://purl.org/dc/elements/1.1/" xmlns:cc="http://creativecommons.org/ns#" xmlns:rdf="http://www.w3.org/1999/02/22-rdf-syntax-ns#">
   <cc:Work>
    <dc:type rdf:resource="http://purl.org/dc/dcmitype/StillImage"/>
    <dc:date>2026-10-01T15:07:04.039841</dc:date>
    <dc:format>image/svg+xml</dc:format>
    <dc:creator>
     <cc:Agent>
      <dc:title>Matplotlib v3.11.2, https://matplotlib.org/</dc:title>
     </cc:Agent>
    </dc:creator>
   </cc:Work>
  </rdf:RDF>
 </metadata>
 <defs>
  <style type="text/css">*{stroke-linejoin: round; stroke-linecap: butt}</style>
 </defs>
 <g id="figure_1">
  <g id="patch_1">
   <path d="M 0 269.965156 
L 386.064 269.965156 
L 386.064 0 
L 0 0 
z
" style="fill: #ffffff"/>
  </g>
  <g id="axes_1">
   <g id="patch_2">
    <path d="M 55.224 226.368313 
L 378.864 226.368313 
L 378.864 21.240312 
L 55.224 21.240312 
z
" style="fill: #ffffff"/>
   </g>
   <g id="matplotlib.axis_1">
    <g id="xtick_1">
     <g id="line2d_1">
      <path d="M 109.164 226.368313 
L 109.164 21.240312 
" clip-path="url(#pc801d3c984)" style="fill: none; stroke: #e1e0d9; stroke-width: 0.6; stroke-linecap: square"/>
     </g>
     <g id="line2d_2">
      <defs>
       <path id="m5fc83864b8" d="M 0 0 
L 0 3.5 
" style="stroke: #898781; stroke-width: 0.8"/>
      </defs>
      <g>
       <use xlink:href="#m5fc83864b8" x="109.164" y="226.368313" style="fill: #898781; stroke: #898781; stroke-width: 0.8"/>
      </g>
     </g>
     <g id="text_1">
      <text style="font-size: 10px; font-family: 'Segoe UI', 'DejaVu Sans', 'Arial', sans-serif; text-anchor: middle; fill: #52514e" x="109.164" y="240.771438" transform="rotate(-0 109.164 240.771438)">A · conventional</text>
     </g>
    </g>
    <g id="xtick_2">
     <g id="line2d_3">
      <path d="M 217.044 226.368313 
L 217.044 21.240312 
" clip-path="url(#pc801d3c984)" style="fill: none; stroke: #e1e0d9; stroke-width: 0.6; stroke-linecap: square"/>
     </g>
     <g id="line2d_4">
      <g>
       <use xlink:href="#m5fc83864b8" x="217.044" y="226.368313" style="fill: #898781; stroke: #898781; stroke-width: 0.8"/>
      </g>
     </g>
     <g id="text_2">
      <text style="font-size: 10px; font-family: 'Segoe UI', 'DejaVu Sans', 'Arial', sans-serif; text-anchor: middle; fill: #52514e" x="217.044" y="240.648586" transform="rotate(-0 217.044 240.648586)">B · provenance</text>
     </g>
    </g>
    <g id="xtick_3">
     <g id="line2d_5">
      <path d="M 324.924 226.368313 
L 324.924 21.240312 
" clip-path="url(#pc801d3c984)" style="fill: none; stroke: #e1e0d9; stroke-width: 0.6; stroke-linecap: square"/>
     </g>
     <g id="line2d_6">
      <g>
       <use xlink:href="#m5fc83864b8" x="324.924" y="226.368313" style="fill: #898781; stroke: #898781; stroke-width: 0.8"/>
      </g>
     </g>
     <g id="text_3">
      <text style="font-size: 10px; font-family: 'Segoe UI', 'DejaVu Sans', 'Arial', sans-serif; text-anchor: middle; fill: #52514e" x="324.924" y="240.877688" transform="rotate(-0 324.924 240.877688)">C · forensic-ready</text>
     </g>
    </g>
   </g>
   <g id="matplotlib.axis_2">
    <g id="ytick_1">
     <g id="line2d_7">
      <path d="M 55.224 218.144666 
L 378.864 218.144666 
" clip-path="url(#pc801d3c984)" style="fill: none; stroke: #e1e0d9; stroke-width: 0.6; stroke-linecap: square"/>
     </g>
     <g id="line2d_8">
      <defs>
       <path id="mcc18583856" d="M 0 0 
L -3.5 0 
" style="stroke: #898781; stroke-width: 0.8"/>
      </defs>
      <g>
       <use xlink:href="#mcc18583856" x="55.224" y="218.144666" style="fill: #898781; stroke: #898781; stroke-width: 0.8"/>
      </g>
     </g>
     <g id="text_4">
      <text style="font-size: 10px; font-family: 'Segoe UI', 'DejaVu Sans', 'Arial', sans-serif; text-anchor: end; fill: #52514e" x="48.224" y="221.784802" transform="rotate(-0 48.224 221.784802)">0.2</text>
     </g>
    </g>
    <g id="ytick_2">
     <g id="line2d_9">
      <path d="M 55.224 181.524818 
L 378.864 181.524818 
" clip-path="url(#pc801d3c984)" style="fill: none; stroke: #e1e0d9; stroke-width: 0.6; stroke-linecap: square"/>
     </g>
     <g id="line2d_10">
      <g>
       <use xlink:href="#mcc18583856" x="55.224" y="181.524818" style="fill: #898781; stroke: #898781; stroke-width: 0.8"/>
      </g>
     </g>
     <g id="text_5">
      <text style="font-size: 10px; font-family: 'Segoe UI', 'DejaVu Sans', 'Arial', sans-serif; text-anchor: end; fill: #52514e" x="48.224" y="185.164955" transform="rotate(-0 48.224 185.164955)">0.4</text>
     </g>
    </g>
    <g id="ytick_3">
     <g id="line2d_11">
      <path d="M 55.224 144.904971 
L 378.864 144.904971 
" clip-path="url(#pc801d3c984)" style="fill: none; stroke: #e1e0d9; stroke-width: 0.6; stroke-linecap: square"/>
     </g>
     <g id="line2d_12">
      <g>
       <use xlink:href="#mcc18583856" x="55.224" y="144.904971" style="fill: #898781; stroke: #898781; stroke-width: 0.8"/>
      </g>
     </g>
     <g id="text_6">
      <text style="font-size: 10px; font-family: 'Segoe UI', 'DejaVu Sans', 'Arial', sans-serif; text-anchor: end; fill: #52514e" x="48.224" y="148.545107" transform="rotate(-0 48.224 148.545107)">0.6</text>
     </g>
    </g>
    <g id="ytick_4">
     <g id="line2d_13">
      <path d="M 55.224 108.285123 
L 378.864 108.285123 
" clip-path="url(#pc801d3c984)" style="fill: none; stroke: #e1e0d9; stroke-width: 0.6; stroke-linecap: square"/>
     </g>
     <g id="line2d_14">
      <g>
       <use xlink:href="#mcc18583856" x="55.224" y="108.285123" style="fill: #898781; stroke: #898781; stroke-width: 0.8"/>
      </g>
     </g>
     <g id="text_7">
      <text style="font-size: 10px; font-family: 'Segoe UI', 'DejaVu Sans', 'Arial', sans-serif; text-anchor: end; fill: #52514e" x="48.224" y="111.92526" transform="rotate(-0 48.224 111.92526)">0.8</text>
     </g>
    </g>
    <g id="ytick_5">
     <g id="line2d_15">
      <path d="M 55.224 71.665276 
L 378.864 71.665276 
" clip-path="url(#pc801d3c984)" style="fill: none; stroke: #e1e0d9; stroke-width: 0.6; stroke-linecap: square"/>
     </g>
     <g id="line2d_16">
      <g>
       <use xlink:href="#mcc18583856" x="55.224" y="71.665276" style="fill: #898781; stroke: #898781; stroke-width: 0.8"/>
      </g>
     </g>
     <g id="text_8">
      <text style="font-size: 10px; font-family: 'Segoe UI', 'DejaVu Sans', 'Arial', sans-serif; text-anchor: end; fill: #52514e" x="48.224" y="75.305412" transform="rotate(-0 48.224 75.305412)">1.0</text>
     </g>
    </g>
    <g id="ytick_6">
     <g id="line2d_17">
      <path d="M 55.224 35.045428 
L 378.864 35.045428 
" clip-path="url(#pc801d3c984)" style="fill: none; stroke: #e1e0d9; stroke-width: 0.6; stroke-linecap: square"/>
     </g>
     <g id="line2d_18">
      <g>
       <use xlink:href="#mcc18583856" x="55.224" y="35.045428" style="fill: #898781; stroke: #898781; stroke-width: 0.8"/>
      </g>
     </g>
     <g id="text_9">
      <text style="font-size: 10px; font-family: 'Segoe UI', 'DejaVu Sans', 'Arial', sans-serif; text-anchor: end; fill: #52514e" x="48.224" y="38.685565" transform="rotate(-0 48.224 38.685565)">1.2</text>
     </g>
    </g>
    <g id="text_10">
     <text style="font-size: 10px; font-family: 'Segoe UI', 'DejaVu Sans', 'Arial', sans-serif; text-anchor: middle; fill: #52514e" x="29.169508" y="123.804312" transform="rotate(-90 29.169508 123.804312)">Seconds</text>
    </g>
   </g>
   <g id="LineCollection_1">
    <path d="M 85.4304 212.107212 
L 132.8976 212.107212 
" clip-path="url(#pc801d3c984)" style="fill: none; stroke: #0b0b0b; stroke-width: 1.6"/>
   </g>
   <g id="LineCollection_2">
    <path d="M 193.3104 182.32047 
L 240.7776 182.32047 
" clip-path="url(#pc801d3c984)" style="fill: none; stroke: #0b0b0b; stroke-width: 1.6"/>
   </g>
   <g id="LineCollection_3">
    <path d="M 301.1904 133.384937 
L 348.6576 133.384937 
" clip-path="url(#pc801d3c984)" style="fill: none; stroke: #0b0b0b; stroke-width: 1.6"/>
   </g>
   <g id="patch_3">
    <path d="M 55.224 226.368313 
L 55.224 21.240312 
" style="fill: none; stroke: #c3c2b7; stroke-width: 0.8; stroke-linejoin: miter; stroke-linecap: square"/>
   </g>
   <g id="patch_4">
    <path d="M 55.224 226.368313 
L 378.864 226.368313 
" style="fill: none; stroke: #c3c2b7; stroke-width: 0.8; stroke-linejoin: miter; stroke-linecap: square"/>
   </g>
   <g id="PathCollection_1">
    <defs>
     <path id="m02bca99772" d="M 0 3.391165 
C 0.899347 3.391165 1.761981 3.03385 2.397916 2.397916 
C 3.03385 1.761981 3.391165 0.899347 3.391165 0 
C 3.391165 -0.899347 3.03385 -1.761981 2.397916 -2.397916 
C 1.761981 -3.03385 0.899347 -3.391165 0 -3.391165 
C -0.899347 -3.391165 -1.761981 -3.03385 -2.397916 -2.397916 
C -3.03385 -1.761981 -3.391165 -0.899347 -3.391165 0 
C -3.391165 0.899347 -3.03385 1.761981 -2.397916 2.397916 
C -1.761981 3.03385 -0.899347 3.391165 0 3.391165 
z
" style="stroke: #ffffff; stroke-width: 1.5"/>
    </defs>
    <g clip-path="url(#pc801d3c984)">
     <use xlink:href="#m02bca99772" x="109.164" y="197.650057" style="fill: #2a78d6; stroke: #ffffff; stroke-width: 1.5"/>
     <use xlink:href="#m02bca99772" x="109.164" y="215.48363" style="fill: #2a78d6; stroke: #ffffff; stroke-width: 1.5"/>
     <use xlink:href="#m02bca99772" x="109.164" y="215.353135" style="fill: #2a78d6; stroke: #ffffff; stroke-width: 1.5"/>
     <use xlink:href="#m02bca99772" x="109.164" y="217.044313" style="fill: #2a78d6; stroke: #ffffff; stroke-width: 1.5"/>
     <use xlink:href="#m02bca99772" x="109.164" y="211.713873" style="fill: #2a78d6; stroke: #ffffff; stroke-width: 1.5"/>
     <use xlink:href="#m02bca99772" x="109.164" y="215.398269" style="fill: #2a78d6; stroke: #ffffff; stroke-width: 1.5"/>
    </g>
   </g>
   <g id="PathCollection_2">
    <defs>
     <path id="meeb2626c18" d="M 0 3.391165 
C 0.899347 3.391165 1.761981 3.03385 2.397916 2.397916 
C 3.03385 1.761981 3.391165 0.899347 3.391165 0 
C 3.391165 -0.899347 3.03385 -1.761981 2.397916 -2.397916 
C 1.761981 -3.03385 0.899347 -3.391165 0 -3.391165 
C -0.899347 -3.391165 -1.761981 -3.03385 -2.397916 -2.397916 
C -3.03385 -1.761981 -3.391165 -0.899347 -3.391165 0 
C -3.391165 0.899347 -3.03385 1.761981 -2.397916 2.397916 
C -1.761981 3.03385 -0.899347 3.391165 0 3.391165 
z
" style="stroke: #ffffff; stroke-width: 1.5"/>
    </defs>
    <g clip-path="url(#pc801d3c984)">
     <use xlink:href="#meeb2626c18" x="217.044" y="191.516946" style="fill: #eb6834; stroke: #ffffff; stroke-width: 1.5"/>
     <use xlink:href="#meeb2626c18" x="217.044" y="185.347253" style="fill: #eb6834; stroke: #ffffff; stroke-width: 1.5"/>
     <use xlink:href="#meeb2626c18" x="217.044" y="194.12395" style="fill: #eb6834; stroke: #ffffff; stroke-width: 1.5"/>
     <use xlink:href="#meeb2626c18" x="217.044" y="186.465715" style="fill: #eb6834; stroke: #ffffff; stroke-width: 1.5"/>
     <use xlink:href="#meeb2626c18" x="217.044" y="184.747914" style="fill: #eb6834; stroke: #ffffff; stroke-width: 1.5"/>
     <use xlink:href="#meeb2626c18" x="217.044" y="151.721041" style="fill: #eb6834; stroke: #ffffff; stroke-width: 1.5"/>
    </g>
   </g>
   <g id="PathCollection_3">
    <defs>
     <path id="m320d216035" d="M 0 3.391165 
C 0.899347 3.391165 1.761981 3.03385 2.397916 2.397916 
C 3.03385 1.761981 3.391165 0.899347 3.391165 0 
C 3.391165 -0.899347 3.03385 -1.761981 2.397916 -2.397916 
C 1.761981 -3.03385 0.899347 -3.391165 0 -3.391165 
C -0.899347 -3.391165 -1.761981 -3.03385 -2.397916 -2.397916 
C -3.03385 -1.761981 -3.391165 -0.899347 -3.391165 0 
C -3.391165 0.899347 -3.03385 1.761981 -2.397916 2.397916 
C -1.761981 3.03385 -0.899347 3.391165 0 3.391165 
z
" style="stroke: #ffffff; stroke-width: 1.5"/>
    </defs>
    <g clip-path="url(#pc801d3c984)">
     <use xlink:href="#m320d216035" x="324.924" y="184.113091" style="fill: #1baf7a; stroke: #ffffff; stroke-width: 1.5"/>
     <use xlink:href="#m320d216035" x="324.924" y="30.564312" style="fill: #1baf7a; stroke: #ffffff; stroke-width: 1.5"/>
     <use xlink:href="#m320d216035" x="324.924" y="175.302539" style="fill: #1baf7a; stroke: #ffffff; stroke-width: 1.5"/>
     <use xlink:href="#m320d216035" x="324.924" y="184.544985" style="fill: #1baf7a; stroke: #ffffff; stroke-width: 1.5"/>
     <use xlink:href="#m320d216035" x="324.924" y="35.914307" style="fill: #1baf7a; stroke: #ffffff; stroke-width: 1.5"/>
     <use xlink:href="#m320d216035" x="324.924" y="189.87039" style="fill: #1baf7a; stroke: #ffffff; stroke-width: 1.5"/>
    </g>
   </g>
   <g id="text_11">
    <text style="font-size: 11px; font-family: 'Segoe UI', 'DejaVu Sans', 'Arial', sans-serif; text-anchor: start; fill: #0b0b0b" x="55.224" y="15.240312" transform="rotate(-0 55.224 15.240312)">Figure 4.8. Reconstruction time</text>
   </g>
  </g>
  <g id="text_12">
   <text style="font-size: 7.5px; font-family: 'Segoe UI', 'DejaVu Sans', 'Arial', sans-serif; text-anchor: start; fill: #52514e" x="7.2" y="261.000313" transform="rotate(-0 7.2 261.000313)">Dots: individual runs (seeds 1-2); bar: mean. Pilot, 30 epochs, 5 % poisoning.</text>
  </g>
 </g>
 <defs>
  <clipPath id="pc801d3c984">
   <rect x="55.224" y="21.240312" width="323.64" height="205.128"/>
  </clipPath>
 </defs>
</svg>
